<svg xmlns="http://www.w3.org/2000/svg" version="1.1" xmlns:xlink="http://www.w3.org/1999/xlink" xmlns:svgjs="http://svgjs.dev/svgjs" width="1000" height="1000" viewBox="0 0 1000 1000"><rect width="1000" height="1000" fill="#ffffff"></rect><g transform="matrix(0.7,0,0,0.7,149.86399820475265,251.3514979757085)"><svg viewBox="0 0 347 247" data-background-color="#ffffff" preserveAspectRatio="xMidYMid meet" height="711" width="1000" xmlns="http://www.w3.org/2000/svg" xmlns:xlink="http://www.w3.org/1999/xlink"><g id="tight-bounds" transform="matrix(1,0,0,1,0.06741803278691805,-0.09999999999999432)"><svg viewBox="0 0 346.86516393442616 247.2" height="247.2" width="346.86516393442616"><g><svg viewBox="0 0 346.86516393442616 247.2" height="247.2" width="346.86516393442616"><g><svg viewBox="0 0 346.86516393442616 247.2" height="247.2" width="346.86516393442616"><g><svg viewBox="0 0 346.8651639344262 247.20000000000002" height="247.2" width="346.86516393442616"><g><svg viewBox="0 0 346.8651639344262 247.20000000000002" height="247.20000000000002" width="346.8651639344262"><g id="textblocktransform"><svg viewBox="0 0 346.8651639344262 247.20000000000002" height="247.20000000000002" width="346.8651639344262" id="textblock"><g><svg viewBox="0 0 346.8651639344262 247.20000000000002" height="247.20000000000002" width="346.8651639344262"><g transform="matrix(1,0,0,1,0,0)"><svg width="346.8651639344262" viewBox="-7.4 -37.7 66.87 47.660000000000004" height="247.20000000000002" data-palette-color="#000000"><path d="M10.5-33.25L10.5-33.25Q10.5-32.32 10.14-31.52 9.79-30.71 9.19-30.11 8.59-29.52 7.78-29.16 6.96-28.81 6.05-28.81L6.05-28.81Q5.1-28.81 4.28-29.16 3.47-29.52 2.86-30.11 2.25-30.71 1.89-31.52 1.54-32.32 1.54-33.25L1.54-33.25Q1.54-34.16 1.89-34.97 2.25-35.79 2.86-36.39 3.47-36.99 4.28-37.34 5.1-37.7 6.05-37.7L6.05-37.7Q6.96-37.7 7.78-37.34 8.59-36.99 9.19-36.39 9.79-35.79 10.14-34.97 10.5-34.16 10.5-33.25ZM-4 9.96L-7.4 9.96-7.4 3.25-3.71 3.3Q-2.37 3.3-1.22 2.75-0.07 2.2 0.77 1.28 1.61 0.37 2.1-0.83 2.59-2.03 2.59-3.34L2.59-3.34 2.59-26.15 9.4-26.15 9.4-3.34 9.35-3.34Q9.33-1.51 8.85 0.2 8.37 1.9 7.5 3.38 6.62 4.86 5.4 6.07 4.17 7.28 2.7 8.14 1.22 9.01-0.48 9.48-2.17 9.96-4 9.96L-4 9.96ZM22.29-33.25L22.29-33.25Q22.29-32.32 21.93-31.52 21.58-30.71 20.97-30.11 20.36-29.52 19.54-29.16 18.72-28.81 17.8-28.81L17.8-28.81Q16.87-28.81 16.05-29.16 15.23-29.52 14.63-30.11 14.04-30.71 13.68-31.52 13.33-32.32 13.33-33.25L13.33-33.25Q13.33-34.16 13.68-34.97 14.04-35.79 14.63-36.39 15.23-36.99 16.05-37.34 16.87-37.7 17.8-37.7L17.8-37.7Q18.72-37.7 19.54-37.34 20.36-36.99 20.97-36.39 21.58-35.79 21.93-34.97 22.29-34.16 22.29-33.25ZM21.14-26.15L21.14 0 14.43 0 14.43-26.15 21.14-26.15ZM59.47-16.6L59.47 0 52.83 0 52.83-16.6Q52.83-17.29 52.57-17.9 52.31-18.51 51.85-18.97 51.39-19.43 50.78-19.69 50.17-19.95 49.48-19.95L49.48-19.95Q48.8-19.95 48.2-19.69 47.6-19.43 47.15-18.97 46.7-18.51 46.44-17.9 46.19-17.29 46.19-16.6L46.19-16.6 46.19 0 39.52 0 39.52-16.6Q39.52-17.29 39.27-17.9 39.01-18.51 38.54-18.97 38.08-19.43 37.47-19.69 36.86-19.95 36.18-19.95L36.18-19.95Q35.49-19.95 34.89-19.69 34.3-19.43 33.85-18.97 33.39-18.51 33.14-17.9 32.88-17.29 32.88-16.6L32.88-16.6 32.88 0 26.22 0 26.22-26.15 27.83-26.15 29.63-24.15Q31.03-25.32 32.7-25.96 34.37-26.61 36.18-26.61L36.18-26.61Q38.01-26.61 39.75-25.93 41.5-25.24 42.82-23.56L42.82-23.56Q43.43-24.39 44.21-24.98 44.99-25.56 45.86-25.93 46.72-26.29 47.65-26.45 48.58-26.61 49.48-26.61L49.48-26.61Q51.56-26.61 53.38-25.83 55.2-25.05 56.55-23.69 57.91-22.34 58.69-20.51 59.47-18.68 59.47-16.6L59.47-16.6Z" opacity="1" transform="matrix(1,0,0,1,0,0)" fill="#000000" class="undefined-text-0" data-fill-palette-color="primary" id="text-0"></path></svg></g></svg></g></svg></g></svg></g></svg></g></svg></g></svg></g><defs></defs></svg><rect width="346.86516393442616" height="247.2" fill="none" stroke="none" visibility="hidden"></rect></g></svg></g></svg>